<?xml version="1.0" encoding="UTF-8" standalone="no"?>
<svg
   id="Layer_1"
   data-name="Layer 1"
   viewBox="0 0 1000.9899 1000.9965"
   version="1.1"
   sodipodi:docname="instagram_mark.svg"
   inkscape:version="1.3 (0e150ed, 2023-07-21)"
   inkscape:export-filename="instagram_mark.png"
   inkscape:export-xdpi="290.112"
   inkscape:export-ydpi="290.112"
   width="1000.9899"
   height="1000.9965"
   xmlns:inkscape="http://www.inkscape.org/namespaces/inkscape"
   xmlns:sodipodi="http://sodipodi.sourceforge.net/DTD/sodipodi-0.dtd"
   xmlns="http://www.w3.org/2000/svg"
   xmlns:svg="http://www.w3.org/2000/svg">
  <defs
     id="defs1" />
  <sodipodi:namedview
     id="namedview1"
     pagecolor="#ffffff"
     bordercolor="#666666"
     borderopacity="1.0"
     inkscape:showpageshadow="2"
     inkscape:pageopacity="0.0"
     inkscape:pagecheckerboard="0"
     inkscape:deskcolor="#d1d1d1"
     inkscape:zoom="0.236"
     inkscape:cx="500"
     inkscape:cy="500"
     inkscape:window-width="1840"
     inkscape:window-height="975"
     inkscape:window-x="1477"
     inkscape:window-y="38"
     inkscape:window-maximized="0"
     inkscape:current-layer="Layer_1" />
  <path
     d="m 293.42078,3.9968568 c -53.2,2.51 -89.53,11.0000002 -121.29,23.4800002 -32.87,12.81 -60.73,30 -88.449996,57.82 -27.72,27.820003 -44.79,55.700003 -57.51,88.620003 -12.31,31.83 -20.6499997,68.19 -22.9999997,121.42 -2.35000002,53.23 -2.87000002,70.34 -2.61000002,206.12 0.26,135.78 0.86000002,152.8 3.44000002,206.14 2.54,53.19 10.9999997,89.51 23.4799997,121.28 12.83,32.87 30,60.72 57.83,88.45 27.829996,27.73 55.689996,44.76 88.689996,57.5 31.8,12.29 68.17,20.67 121.39,23 53.22,2.33004 70.35,2.87004 206.09,2.61004 135.74,-0.26 152.83,-0.86004 206.16,-3.39004 53.33,-2.53 89.46,-11.05 121.24,-23.47 32.87,-12.86 60.74,-30 88.45,-57.84 27.71,-27.84 44.77,-55.74 57.48,-88.68 12.32,-31.8 20.69,-68.17 23,-121.35 2.33002,-53.37 2.88002,-70.41 2.62002,-206.17 -0.26,-135.76 -0.87002,-152.78 -3.40002,-206.1 -2.53,-53.32 -11,-89.53 -23.47,-121.32 -12.85,-32.87 -30,-60.7 -57.82,-88.450003 -27.82,-27.75 -55.74,-44.8 -88.67,-57.48 -31.82,-12.31 -68.17,-20.7000002 -121.39,-23.0000002 -53.22,-2.29999999 -70.35,-2.88999999 -206.14,-2.62999999 -135.79,0.26 -152.79,0.83999999 -206.12,3.43999999 m 5.84,903.8800032 c -48.75,-2.12 -75.22,-10.22 -92.86,-17 -23.36,-9 -40,-19.88 -57.58,-37.29 -17.58,-17.41 -28.38,-34.11 -37.5,-57.42 -6.85,-17.64 -15.099996,-44.08 -17.379996,-92.83 -2.48,-52.69 -3,-68.51 -3.29,-202 -0.29,-133.49 0.22,-149.29 2.53,-202 2.08,-48.71 10.229996,-75.21 16.999996,-92.84 9,-23.39 19.84,-40 37.29,-57.57 17.45,-17.57 34.1,-28.39 57.43,-37.51 17.62,-6.88 44.06,-15.060003 92.79,-17.380003 52.73,-2.5 68.53,-3 202,-3.29 133.47,-0.29 149.31,0.21 202.06,2.53 48.71,2.12 75.22,10.190003 92.83,17.000003 23.37,9 40,19.81 57.57,37.29 17.57,17.48 28.4,34.07 37.52,57.45 6.89,17.57 15.07,44 17.37,92.76 2.51,52.73 3.08,68.54 3.32,202 0.24,133.46 -0.23,149.31 -2.54,202 -2.13,48.75 -10.21,75.23 -17,92.89 -9,23.35 -19.85,40 -37.31,57.56 -17.46,17.56 -34.09,28.38 -57.43,37.5 -17.6,6.87 -44.07,15.07 -92.76,17.39 -52.73,2.48 -68.53,3 -202.05,3.29 -133.52,0.29 -149.27,-0.25 -202,-2.53 m 407.6,-674.61 a 60,60 0 1 0 59.88,-60.1 60,60 0 0 0 -59.88,60.1 m -463.1,267.73 c 0.28,141.8 115.44,256.49 257.21,256.22 141.77,-0.27 256.54,-115.42 256.27,-257.22 -0.27,-141.8 -115.46,-256.52 -257.25,-256.24 -141.79,0.28 -256.5,115.46 -256.23,257.24 m 90.06,-0.18 a 166.67,166.67 0 1 1 167,166.34 166.65,166.65 0 0 1 -167,-166.34"
     id="path1"
     style="fill:#D175CB;fill-opacity:1;stroke:#D175CB;stroke-opacity:1" />
</svg>
