<?xml version="1.0" encoding="UTF-8" standalone="no"?>
<!-- Created with Inkscape (http://www.inkscape.org/) -->

<svg
   width="45.353092mm"
   height="45.442352mm"
   viewBox="0 0 45.353092 45.442352"
   version="1.1"
   id="svg1"
   xml:space="preserve"
   inkscape:version="1.3 (0e150ed, 2023-07-21)"
   sodipodi:docname="linkedin_mark.svg"
   xmlns:inkscape="http://www.inkscape.org/namespaces/inkscape"
   xmlns:sodipodi="http://sodipodi.sourceforge.net/DTD/sodipodi-0.dtd"
   xmlns="http://www.w3.org/2000/svg"
   xmlns:svg="http://www.w3.org/2000/svg"><sodipodi:namedview
     id="namedview1"
     pagecolor="#ffffff"
     bordercolor="#666666"
     borderopacity="1.0"
     inkscape:showpageshadow="2"
     inkscape:pageopacity="0.0"
     inkscape:pagecheckerboard="0"
     inkscape:deskcolor="#d1d1d1"
     inkscape:document-units="mm"
     inkscape:zoom="0.2102413"
     inkscape:cx="394.78447"
     inkscape:cy="-221.17443"
     inkscape:window-width="1808"
     inkscape:window-height="888"
     inkscape:window-x="1592"
     inkscape:window-y="63"
     inkscape:window-maximized="0"
     inkscape:current-layer="layer1" /><defs
     id="defs1" /><g
     inkscape:label="Layer 1"
     inkscape:groupmode="layer"
     id="layer1"
     transform="translate(-145.87499,-24.385516)"><path
       style="fill:#D175CB;fill-opacity:1"
       d="m 148.53109,69.706317 c -1.91551,-0.336811 -2.94251,-2.39725 -2.58617,-4.199372 0,-12.863937 0,-25.727875 0,-38.591812 0.64392,-2.34463 3.3658,-2.72472 5.41799,-2.454567 12.37877,-0.05331 24.75827,-0.103632 37.13662,0.04275 1.95257,0.288236 3.02354,2.381435 2.65739,4.206012 0,12.863937 0,25.727875 0,38.591812 -0.64251,2.342021 -3.35966,2.72406 -5.40947,2.450174 -12.40539,0.04634 -24.81134,0.08989 -37.21636,-0.045 z m 10.81266,-17.45468 c -0.007,-3.59128 -0.0143,-7.18256 -0.0215,-10.77384 -2.09615,0.262024 -5.28324,-0.574077 -6.731,0.340611 0,7.069043 0,14.138086 0,21.207129 2.25799,0 4.51599,0 6.77398,0 -0.007,-3.591294 -0.0143,-7.18264 -0.0215,-10.7739 z m 10.96264,4.445 c 0.2456,-2.834785 -0.58927,-5.986963 0.90284,-8.566606 1.83059,-2.332952 6.35628,-1.479417 6.44406,1.779501 0.21994,4.361155 0.11908,8.744092 0.18166,13.115935 2.22839,0 4.45678,0 6.68517,0 -0.12366,-5.362557 0.18957,-10.752704 -0.3369,-16.09569 -0.46069,-2.872793 -2.64851,-5.59705 -5.68883,-5.851694 -3.03278,-0.600619 -6.70336,0.29365 -8.2639,3.177736 -0.2695,-1.254087 0.10983,-3.496437 -2.03471,-2.778022 -1.54672,0 -3.09343,0 -4.64015,0 -0.0143,7.182557 -0.0287,14.365113 -0.043,21.54767 2.25563,0 4.51127,0 6.7669,0 0.009,-2.109597 0.018,-4.219299 0.0269,-6.32883 z m -13.49126,-18.3143 c 2.95135,-0.549012 4.13651,-4.866274 1.69678,-6.727052 -2.2271,-2.141964 -6.38489,-0.360748 -6.43443,2.695605 -0.10169,2.451581 2.27775,4.667933 4.73765,4.031447 z"
       id="path1" /></g></svg>
